<svg width="1080" height="1080" viewBox="0 0 1080 1080" fill="none" xmlns="http://www.w3.org/2000/svg">
<circle cx="540" cy="540" r="540" fill="black"/>
<path d="M750.232 379.735C777.651 376.147 797.284 405.537 783.455 429.468L723.15 533.825C717.659 543.328 717.198 554.923 721.919 564.831L773.756 673.638C785.643 698.589 763.74 726.33 736.692 720.582L618.741 695.515C608 693.233 596.823 696.378 588.852 703.926L501.321 786.816C481.249 805.824 448.079 793.58 445.191 766.097L432.598 646.247C431.451 635.333 425.004 625.682 415.358 620.439L309.424 562.862C285.131 549.658 286.534 514.349 311.797 503.112L421.965 454.107C431.997 449.645 439.19 440.535 441.198 429.746L463.259 311.271C468.318 284.103 502.354 274.525 520.856 295.063L601.536 384.627C608.883 392.782 619.776 396.803 630.664 395.379L750.232 379.735Z" fill="white"/>
</svg>
