<svg width="1920" height="1080" viewBox="0 0 1920 1080" fill="none" xmlns="http://www.w3.org/2000/svg">
<g filter="url(#filter0_dd_355_374)">
<rect width="1920" height="1080" fill="black"/>
<path d="M405.818 579H381.068V509.182H406.023C413.045 509.182 419.091 510.58 424.159 513.375C429.227 516.148 433.125 520.136 435.852 525.341C438.602 530.545 439.977 536.773 439.977 544.023C439.977 551.295 438.602 557.545 435.852 562.773C433.125 568 429.205 572.011 424.091 574.807C419 577.602 412.909 579 405.818 579ZM395.83 566.352H405.205C409.568 566.352 413.239 565.58 416.216 564.034C419.216 562.466 421.466 560.045 422.966 556.773C424.489 553.477 425.25 549.227 425.25 544.023C425.25 538.864 424.489 534.648 422.966 531.375C421.466 528.102 419.227 525.693 416.25 524.148C413.273 522.602 409.602 521.83 405.239 521.83H395.83V566.352ZM472.583 580.023C467.196 580.023 462.56 578.932 458.674 576.75C454.81 574.545 451.833 571.432 449.742 567.409C447.651 563.364 446.606 558.58 446.606 553.057C446.606 547.67 447.651 542.943 449.742 538.875C451.833 534.807 454.776 531.636 458.571 529.364C462.39 527.091 466.867 525.955 472.003 525.955C475.458 525.955 478.674 526.511 481.651 527.625C484.651 528.716 487.265 530.364 489.492 532.568C491.742 534.773 493.492 537.545 494.742 540.886C495.992 544.205 496.617 548.091 496.617 552.545V556.534H452.401V547.534H482.946C482.946 545.443 482.492 543.591 481.583 541.977C480.674 540.364 479.412 539.102 477.799 538.193C476.208 537.261 474.356 536.795 472.242 536.795C470.037 536.795 468.083 537.307 466.378 538.33C464.696 539.33 463.378 540.682 462.424 542.386C461.469 544.068 460.981 545.943 460.958 548.011V556.568C460.958 559.159 461.435 561.398 462.39 563.284C463.367 565.17 464.742 566.625 466.515 567.648C468.287 568.67 470.39 569.182 472.821 569.182C474.435 569.182 475.912 568.955 477.253 568.5C478.594 568.045 479.742 567.364 480.696 566.455C481.651 565.545 482.378 564.432 482.878 563.114L496.31 564C495.628 567.227 494.231 570.045 492.117 572.455C490.026 574.841 487.321 576.705 484.003 578.045C480.708 579.364 476.901 580.023 472.583 580.023ZM547.742 541.568L534.447 542.386C534.22 541.25 533.731 540.227 532.981 539.318C532.231 538.386 531.242 537.648 530.015 537.102C528.811 536.534 527.367 536.25 525.686 536.25C523.436 536.25 521.538 536.727 519.992 537.682C518.447 538.614 517.674 539.864 517.674 541.432C517.674 542.682 518.174 543.739 519.174 544.602C520.174 545.466 521.89 546.159 524.322 546.682L533.799 548.591C538.89 549.636 542.686 551.318 545.186 553.636C547.686 555.955 548.936 559 548.936 562.773C548.936 566.205 547.924 569.216 545.901 571.807C543.901 574.398 541.151 576.42 537.651 577.875C534.174 579.307 530.163 580.023 525.617 580.023C518.686 580.023 513.163 578.58 509.049 575.693C504.958 572.784 502.561 568.83 501.856 563.83L516.14 563.08C516.572 565.193 517.617 566.807 519.276 567.92C520.936 569.011 523.061 569.557 525.651 569.557C528.197 569.557 530.242 569.068 531.788 568.091C533.356 567.091 534.151 565.807 534.174 564.239C534.151 562.92 533.595 561.841 532.504 561C531.413 560.136 529.731 559.477 527.458 559.023L518.39 557.216C513.276 556.193 509.47 554.42 506.97 551.898C504.492 549.375 503.254 546.159 503.254 542.25C503.254 538.886 504.163 535.989 505.981 533.557C507.822 531.125 510.401 529.25 513.72 527.932C517.061 526.614 520.97 525.955 525.447 525.955C532.061 525.955 537.265 527.352 541.061 530.148C544.879 532.943 547.106 536.75 547.742 541.568ZM556.16 579V526.636H570.683V579H556.16ZM563.456 519.886C561.297 519.886 559.445 519.17 557.899 517.739C556.376 516.284 555.615 514.545 555.615 512.523C555.615 510.523 556.376 508.807 557.899 507.375C559.445 505.92 561.297 505.193 563.456 505.193C565.615 505.193 567.456 505.92 568.979 507.375C570.524 508.807 571.297 510.523 571.297 512.523C571.297 514.545 570.524 516.284 568.979 517.739C567.456 519.17 565.615 519.886 563.456 519.886ZM603.988 599.727C599.283 599.727 595.249 599.08 591.885 597.784C588.544 596.511 585.885 594.773 583.908 592.568C581.931 590.364 580.647 587.886 580.056 585.136L593.488 583.33C593.897 584.375 594.544 585.352 595.431 586.261C596.317 587.17 597.488 587.898 598.942 588.443C600.419 589.011 602.215 589.295 604.329 589.295C607.488 589.295 610.09 588.523 612.135 586.977C614.204 585.455 615.238 582.898 615.238 579.307V569.727H614.624C613.988 571.182 613.033 572.557 611.76 573.852C610.488 575.148 608.851 576.205 606.851 577.023C604.851 577.841 602.465 578.25 599.692 578.25C595.76 578.25 592.181 577.341 588.954 575.523C585.749 573.682 583.192 570.875 581.283 567.102C579.397 563.307 578.454 558.511 578.454 552.716C578.454 546.784 579.419 541.83 581.351 537.852C583.283 533.875 585.851 530.898 589.056 528.92C592.283 526.943 595.817 525.955 599.658 525.955C602.59 525.955 605.044 526.455 607.022 527.455C608.999 528.432 610.59 529.659 611.794 531.136C613.022 532.591 613.965 534.023 614.624 535.432H615.169V526.636H629.59V579.511C629.59 583.966 628.499 587.693 626.317 590.693C624.135 593.693 621.113 595.943 617.249 597.443C613.408 598.966 608.988 599.727 603.988 599.727ZM604.294 567.341C606.635 567.341 608.613 566.761 610.226 565.602C611.863 564.42 613.113 562.739 613.976 560.557C614.863 558.352 615.306 555.716 615.306 552.648C615.306 549.58 614.874 546.92 614.01 544.67C613.147 542.398 611.897 540.636 610.26 539.386C608.624 538.136 606.635 537.511 604.294 537.511C601.908 537.511 599.897 538.159 598.26 539.455C596.624 540.727 595.385 542.5 594.544 544.773C593.704 547.045 593.283 549.67 593.283 552.648C593.283 555.67 593.704 558.284 594.544 560.489C595.408 562.67 596.647 564.364 598.26 565.568C599.897 566.75 601.908 567.341 604.294 567.341ZM653.749 548.727V579H639.227V526.636H653.068V535.875H653.681C654.84 532.83 656.784 530.42 659.511 528.648C662.238 526.852 665.545 525.955 669.431 525.955C673.068 525.955 676.238 526.75 678.943 528.341C681.647 529.932 683.749 532.205 685.249 535.159C686.749 538.091 687.499 541.591 687.499 545.659V579H672.977V548.25C672.999 545.045 672.181 542.545 670.522 540.75C668.863 538.932 666.579 538.023 663.67 538.023C661.715 538.023 659.988 538.443 658.488 539.284C657.011 540.125 655.852 541.352 655.011 542.966C654.193 544.557 653.772 546.477 653.749 548.727Z" fill="white"/>
<path d="M1276.07 579V509.182H1323.11V521.352H1290.83V537.989H1320.69V550.159H1290.83V566.83H1323.25V579H1276.07ZM1347.18 548.727V579H1332.66V526.636H1346.5V535.875H1347.11C1348.27 532.83 1350.21 530.42 1352.94 528.648C1355.67 526.852 1358.97 525.955 1362.86 525.955C1366.5 525.955 1369.67 526.75 1372.37 528.341C1375.08 529.932 1377.18 532.205 1378.68 535.159C1380.18 538.091 1380.93 541.591 1380.93 545.659V579H1366.41V548.25C1366.43 545.045 1365.61 542.545 1363.95 540.75C1362.29 538.932 1360.01 538.023 1357.1 538.023C1355.15 538.023 1353.42 538.443 1351.92 539.284C1350.44 540.125 1349.28 541.352 1348.44 542.966C1347.62 544.557 1347.2 546.477 1347.18 548.727ZM1414.05 599.727C1409.34 599.727 1405.31 599.08 1401.94 597.784C1398.6 596.511 1395.94 594.773 1393.97 592.568C1391.99 590.364 1390.71 587.886 1390.11 585.136L1403.55 583.33C1403.96 584.375 1404.6 585.352 1405.49 586.261C1406.38 587.17 1407.55 587.898 1409 588.443C1410.48 589.011 1412.27 589.295 1414.39 589.295C1417.55 589.295 1420.15 588.523 1422.19 586.977C1424.26 585.455 1425.3 582.898 1425.3 579.307V569.727H1424.68C1424.05 571.182 1423.09 572.557 1421.82 573.852C1420.55 575.148 1418.91 576.205 1416.91 577.023C1414.91 577.841 1412.52 578.25 1409.75 578.25C1405.82 578.25 1402.24 577.341 1399.01 575.523C1395.81 573.682 1393.25 570.875 1391.34 567.102C1389.46 563.307 1388.51 558.511 1388.51 552.716C1388.51 546.784 1389.48 541.83 1391.41 537.852C1393.34 533.875 1395.91 530.898 1399.11 528.92C1402.34 526.943 1405.88 525.955 1409.72 525.955C1412.65 525.955 1415.1 526.455 1417.08 527.455C1419.06 528.432 1420.65 529.659 1421.85 531.136C1423.08 532.591 1424.02 534.023 1424.68 535.432H1425.23V526.636H1439.65V579.511C1439.65 583.966 1438.56 587.693 1436.38 590.693C1434.19 593.693 1431.17 595.943 1427.31 597.443C1423.47 598.966 1419.05 599.727 1414.05 599.727ZM1414.35 567.341C1416.69 567.341 1418.67 566.761 1420.29 565.602C1421.92 564.42 1423.17 562.739 1424.04 560.557C1424.92 558.352 1425.36 555.716 1425.36 552.648C1425.36 549.58 1424.93 546.92 1424.07 544.67C1423.21 542.398 1421.96 540.636 1420.32 539.386C1418.68 538.136 1416.69 537.511 1414.35 537.511C1411.97 537.511 1409.96 538.159 1408.32 539.455C1406.68 540.727 1405.44 542.5 1404.6 544.773C1403.76 547.045 1403.34 549.67 1403.34 552.648C1403.34 555.67 1403.76 558.284 1404.6 560.489C1405.47 562.67 1406.71 564.364 1408.32 565.568C1409.96 566.75 1411.97 567.341 1414.35 567.341ZM1449.29 579V526.636H1463.81V579H1449.29ZM1456.58 519.886C1454.42 519.886 1452.57 519.17 1451.02 517.739C1449.5 516.284 1448.74 514.545 1448.74 512.523C1448.74 510.523 1449.5 508.807 1451.02 507.375C1452.57 505.92 1454.42 505.193 1456.58 505.193C1458.74 505.193 1460.58 505.92 1462.1 507.375C1463.65 508.807 1464.42 510.523 1464.42 512.523C1464.42 514.545 1463.65 516.284 1462.1 517.739C1460.58 519.17 1458.74 519.886 1456.58 519.886ZM1488.04 548.727V579H1473.52V526.636H1487.36V535.875H1487.98C1489.14 532.83 1491.08 530.42 1493.81 528.648C1496.53 526.852 1499.84 525.955 1503.73 525.955C1507.36 525.955 1510.53 526.75 1513.24 528.341C1515.94 529.932 1518.04 532.205 1519.54 535.159C1521.04 538.091 1521.79 541.591 1521.79 545.659V579H1507.27V548.25C1507.29 545.045 1506.48 542.545 1504.82 540.75C1503.16 538.932 1500.87 538.023 1497.96 538.023C1496.01 538.023 1494.28 538.443 1492.78 539.284C1491.31 540.125 1490.15 541.352 1489.31 542.966C1488.49 544.557 1488.07 546.477 1488.04 548.727ZM1555.18 580.023C1549.8 580.023 1545.16 578.932 1541.27 576.75C1537.41 574.545 1534.43 571.432 1532.34 567.409C1530.25 563.364 1529.21 558.58 1529.21 553.057C1529.21 547.67 1530.25 542.943 1532.34 538.875C1534.43 534.807 1537.38 531.636 1541.17 529.364C1544.99 527.091 1549.47 525.955 1554.6 525.955C1558.06 525.955 1561.27 526.511 1564.25 527.625C1567.25 528.716 1569.87 530.364 1572.09 532.568C1574.34 534.773 1576.09 537.545 1577.34 540.886C1578.59 544.205 1579.22 548.091 1579.22 552.545V556.534H1535V547.534H1565.55C1565.55 545.443 1565.09 543.591 1564.18 541.977C1563.27 540.364 1562.01 539.102 1560.4 538.193C1558.81 537.261 1556.96 536.795 1554.84 536.795C1552.64 536.795 1550.68 537.307 1548.98 538.33C1547.3 539.33 1545.98 540.682 1545.02 542.386C1544.07 544.068 1543.58 545.943 1543.56 548.011V556.568C1543.56 559.159 1544.04 561.398 1544.99 563.284C1545.97 565.17 1547.34 566.625 1549.12 567.648C1550.89 568.67 1552.99 569.182 1555.42 569.182C1557.04 569.182 1558.51 568.955 1559.85 568.5C1561.2 568.045 1562.34 567.364 1563.3 566.455C1564.25 565.545 1564.98 564.432 1565.48 563.114L1578.91 564C1578.23 567.227 1576.83 570.045 1574.72 572.455C1572.63 574.841 1569.92 576.705 1566.6 578.045C1563.31 579.364 1559.5 580.023 1555.18 580.023ZM1610.64 580.023C1605.25 580.023 1600.62 578.932 1596.73 576.75C1592.87 574.545 1589.89 571.432 1587.8 567.409C1585.71 563.364 1584.66 558.58 1584.66 553.057C1584.66 547.67 1585.71 542.943 1587.8 538.875C1589.89 534.807 1592.83 531.636 1596.63 529.364C1600.45 527.091 1604.92 525.955 1610.06 525.955C1613.51 525.955 1616.73 526.511 1619.71 527.625C1622.71 528.716 1625.32 530.364 1627.55 532.568C1629.8 534.773 1631.55 537.545 1632.8 540.886C1634.05 544.205 1634.67 548.091 1634.67 552.545V556.534H1590.46V547.534H1621C1621 545.443 1620.55 543.591 1619.64 541.977C1618.73 540.364 1617.47 539.102 1615.86 538.193C1614.26 537.261 1612.41 536.795 1610.3 536.795C1608.09 536.795 1606.14 537.307 1604.43 538.33C1602.75 539.33 1601.43 540.682 1600.48 542.386C1599.53 544.068 1599.04 545.943 1599.01 548.011V556.568C1599.01 559.159 1599.49 561.398 1600.45 563.284C1601.42 565.17 1602.8 566.625 1604.57 567.648C1606.34 568.67 1608.45 569.182 1610.88 569.182C1612.49 569.182 1613.97 568.955 1615.31 568.5C1616.65 568.045 1617.8 567.364 1618.75 566.455C1619.71 565.545 1620.43 564.432 1620.93 563.114L1634.37 564C1633.68 567.227 1632.29 570.045 1630.17 572.455C1628.08 574.841 1625.38 576.705 1622.06 578.045C1618.76 579.364 1614.96 580.023 1610.64 580.023ZM1642.23 579V526.636H1656.31V535.773H1656.86C1657.81 532.523 1659.41 530.068 1661.66 528.409C1663.91 526.727 1666.5 525.886 1669.43 525.886C1670.16 525.886 1670.95 525.932 1671.79 526.023C1672.63 526.114 1673.37 526.239 1674 526.398V539.284C1673.32 539.08 1672.38 538.898 1671.17 538.739C1669.97 538.58 1668.87 538.5 1667.87 538.5C1665.73 538.5 1663.82 538.966 1662.14 539.898C1660.48 540.807 1659.16 542.08 1658.18 543.716C1657.23 545.352 1656.75 547.239 1656.75 549.375V579H1642.23Z" fill="white"/>
<line x1="958" y1="840" x2="958" y2="240" stroke="#323234" stroke-width="4" stroke-dasharray="8 8"/>
</g>
<defs>
<filter id="filter0_dd_355_374" x="-20" y="-15" width="1960" height="1120" filterUnits="userSpaceOnUse" color-interpolation-filters="sRGB">
<feFlood flood-opacity="0" result="BackgroundImageFix"/>
<feColorMatrix in="SourceAlpha" type="matrix" values="0 0 0 0 0 0 0 0 0 0 0 0 0 0 0 0 0 0 127 0" result="hardAlpha"/>
<feOffset dy="5"/>
<feGaussianBlur stdDeviation="10"/>
<feColorMatrix type="matrix" values="0 0 0 0 0 0 0 0 0 0 0 0 0 0 0 0 0 0 0.1 0"/>
<feBlend mode="normal" in2="BackgroundImageFix" result="effect1_dropShadow_355_374"/>
<feColorMatrix in="SourceAlpha" type="matrix" values="0 0 0 0 0 0 0 0 0 0 0 0 0 0 0 0 0 0 127 0" result="hardAlpha"/>
<feOffset/>
<feGaussianBlur stdDeviation="1.5"/>
<feColorMatrix type="matrix" values="0 0 0 0 0 0 0 0 0 0 0 0 0 0 0 0 0 0 0.3 0"/>
<feBlend mode="normal" in2="effect1_dropShadow_355_374" result="effect2_dropShadow_355_374"/>
<feBlend mode="normal" in="SourceGraphic" in2="effect2_dropShadow_355_374" result="shape"/>
</filter>
</defs>
</svg>
