<svg width="496" height="512" viewBox="0 0 496 512" fill="none" xmlns="http://www.w3.org/2000/svg">
<path d="M458.232 95.7345C485.651 92.1471 505.284 121.537 491.455 145.468L431.15 249.825C425.659 259.328 425.198 270.923 429.919 280.831L481.756 389.638C493.643 414.589 471.74 442.33 444.692 436.582L326.741 411.515C316 409.233 304.823 412.378 296.852 419.926L209.321 502.816C189.249 521.824 156.079 509.58 153.191 482.097L140.598 362.247C139.451 351.333 133.004 341.682 123.358 336.439L17.4236 278.862C-6.86883 265.658 -5.46617 230.349 19.7971 219.112L129.965 170.107C139.997 165.645 147.19 156.535 149.198 145.746L171.259 27.2712C176.318 0.102915 210.354 -9.47503 228.856 11.0633L309.536 100.627C316.883 108.782 327.776 112.803 338.664 111.379L458.232 95.7345Z" fill="white"/>
</svg>
