<svg width="521" height="200" viewBox="0 0 521 200" fill="none" xmlns="http://www.w3.org/2000/svg">
<path d="M295.955 54.1068V147.198H278.955L238.455 88.6068H237.773V147.198H218.091V54.1068H235.364L275.545 112.652H276.364V54.1068H295.955ZM341.11 148.561C333.929 148.561 327.747 147.107 322.565 144.198C317.413 141.258 313.444 137.107 310.656 131.743C307.868 126.349 306.474 119.97 306.474 112.607C306.474 105.425 307.868 99.122 310.656 93.6978C313.444 88.2735 317.368 84.0462 322.429 81.0159C327.52 77.9856 333.489 76.4705 340.338 76.4705C344.944 76.4705 349.232 77.2129 353.201 78.6978C357.201 80.1523 360.686 82.3493 363.656 85.2887C366.656 88.2281 368.989 91.925 370.656 96.3796C372.323 100.804 373.156 105.986 373.156 111.925V117.243H314.201V105.243H354.929C354.929 102.455 354.323 99.9856 353.11 97.8341C351.898 95.6826 350.217 94.0008 348.065 92.7887C345.944 91.5462 343.474 90.925 340.656 90.925C337.717 90.925 335.11 91.6068 332.838 92.9705C330.595 94.3038 328.838 96.1068 327.565 98.3796C326.292 100.622 325.641 103.122 325.61 105.88V117.289C325.61 120.743 326.247 123.728 327.52 126.243C328.823 128.758 330.656 130.698 333.02 132.061C335.383 133.425 338.186 134.107 341.429 134.107C343.58 134.107 345.55 133.804 347.338 133.198C349.126 132.592 350.656 131.683 351.929 130.47C353.201 129.258 354.171 127.774 354.838 126.016L372.747 127.198C371.838 131.501 369.974 135.258 367.156 138.47C364.368 141.652 360.762 144.137 356.338 145.925C351.944 147.683 346.868 148.561 341.11 148.561ZM382.869 147.198V135.652L417.05 93.3341V92.8341H384.05V77.3796H440.369V89.9705L408.278 131.243V131.743H441.55V147.198H382.869ZM473.706 148.516C469.252 148.516 465.282 147.743 461.797 146.198C458.312 144.622 455.555 142.304 453.525 139.243C451.525 136.152 450.525 132.304 450.525 127.698C450.525 123.819 451.237 120.561 452.661 117.925C454.085 115.289 456.025 113.167 458.479 111.561C460.934 109.955 463.722 108.743 466.843 107.925C469.994 107.107 473.297 106.531 476.752 106.198C480.812 105.774 484.085 105.38 486.57 105.016C489.055 104.622 490.858 104.046 491.979 103.289C493.1 102.531 493.661 101.41 493.661 99.925V99.6523C493.661 96.7735 492.752 94.5462 490.934 92.9705C489.146 91.3947 486.6 90.6068 483.297 90.6068C479.812 90.6068 477.04 91.3796 474.979 92.925C472.918 94.4402 471.555 96.3493 470.888 98.6523L452.979 97.1978C453.888 92.9553 455.676 89.2887 458.343 86.1978C461.009 83.0765 464.449 80.6826 468.661 79.0159C472.903 77.319 477.812 76.4705 483.388 76.4705C487.267 76.4705 490.979 76.925 494.525 77.8341C498.1 78.7432 501.267 80.1523 504.025 82.0614C506.812 83.9705 509.009 86.425 510.615 89.425C512.222 92.3947 513.025 95.9553 513.025 100.107V147.198H494.661V137.516H494.115C492.994 139.698 491.494 141.622 489.615 143.289C487.737 144.925 485.479 146.213 482.843 147.152C480.206 148.061 477.161 148.516 473.706 148.516ZM479.252 135.152C482.1 135.152 484.615 134.592 486.797 133.47C488.979 132.319 490.691 130.774 491.934 128.834C493.176 126.895 493.797 124.698 493.797 122.243V114.834C493.191 115.228 492.358 115.592 491.297 115.925C490.267 116.228 489.1 116.516 487.797 116.789C486.494 117.031 485.191 117.258 483.888 117.47C482.585 117.652 481.403 117.819 480.343 117.97C478.07 118.304 476.085 118.834 474.388 119.561C472.691 120.289 471.373 121.274 470.434 122.516C469.494 123.728 469.025 125.243 469.025 127.061C469.025 129.698 469.979 131.713 471.888 133.107C473.828 134.47 476.282 135.152 479.252 135.152Z" fill="white"/>
<path d="M179.228 37.3963C189.952 35.9949 197.631 47.4752 192.222 56.8232L168.635 97.5879C166.488 101.3 166.307 105.829 168.154 109.7L188.429 152.202C193.078 161.949 184.511 172.785 173.932 170.54L127.798 160.748C123.597 159.857 119.225 161.085 116.108 164.034L81.8716 196.413C74.0207 203.838 61.0471 199.055 59.9176 188.319L54.992 141.503C54.5435 137.24 52.0218 133.47 48.2488 131.422L6.81487 108.93C-2.6866 103.773 -2.13798 89.9801 7.74324 85.5904L50.8331 66.4481C54.7569 64.7049 57.5701 61.1464 58.3558 56.9321L66.9843 10.6528C68.9629 0.0402013 82.2756 -3.70118 89.5121 4.3216L121.069 39.3073C123.942 42.4931 128.203 44.0637 132.461 43.5072L179.228 37.3963Z" fill="white"/>
</svg>
